<svg width="109" height="30" viewBox="0 0 109 30" fill="none" xmlns="http://www.w3.org/2000/svg">
<mask id="path-1-outside-1_51_234" maskUnits="userSpaceOnUse" x="22.9722" y="6.38889" width="85" height="18" fill="black">
<rect fill="white" x="22.9722" y="6.38889" width="85" height="18"/>
<path d="M28.965 23.6622C27.8413 23.6622 26.8543 23.4572 26.0039 23.0472C25.1687 22.6372 24.5082 22.0526 24.0222 21.2933C23.5515 20.5341 23.3085 19.6306 23.2933 18.5828H25.8445C25.8596 19.3876 26.133 20.0785 26.6645 20.6556C27.2111 21.2174 27.9704 21.4983 28.9422 21.4983C29.8382 21.4983 30.5367 21.2933 31.0378 20.8833C31.5389 20.4581 31.7895 19.9115 31.7895 19.2433C31.7895 18.6815 31.6376 18.2183 31.3339 17.8539C31.0454 17.4743 30.5898 17.1402 29.9672 16.8517C29.3446 16.548 28.5398 16.2367 27.5528 15.9178C26.2317 15.4926 25.2598 14.908 24.6372 14.1639C24.0146 13.4046 23.7033 12.4783 23.7033 11.385C23.7033 10.1246 24.1589 9.10722 25.07 8.33277C25.9811 7.55833 27.2339 7.17111 28.8283 7.17111C30.3772 7.17111 31.6224 7.57352 32.5639 8.37833C33.5054 9.16796 33.9913 10.2689 34.0217 11.6811H31.4478C31.4478 11.3015 31.3415 10.937 31.1289 10.5878C30.9163 10.2233 30.6126 9.92722 30.2178 9.69944C29.823 9.45648 29.337 9.335 28.76 9.335C28.0463 9.31981 27.4465 9.49444 26.9606 9.85889C26.4746 10.2081 26.2317 10.6865 26.2317 11.2939C26.2317 12.038 26.5278 12.6226 27.12 13.0478C27.7122 13.4578 28.6765 13.883 30.0128 14.3233C30.848 14.5967 31.5845 14.9307 32.2222 15.3256C32.8752 15.7052 33.3839 16.1987 33.7483 16.8061C34.128 17.3983 34.3178 18.1576 34.3178 19.0839C34.3178 19.9343 34.1052 20.7087 33.68 21.4072C33.2548 22.0906 32.6398 22.6372 31.835 23.0472C31.0454 23.4572 30.0887 23.6622 28.965 23.6622ZM41.8028 23.3889V7.44444H47.2011C48.4159 7.44444 49.4181 7.65703 50.2078 8.08222C50.9974 8.49222 51.582 9.06166 51.9617 9.79055C52.3413 10.5194 52.5311 11.3546 52.5311 12.2961C52.5311 13.2376 52.3413 14.0728 51.9617 14.8017C51.582 15.5306 50.9974 16.1076 50.2078 16.5328C49.4181 16.9428 48.4159 17.1478 47.2011 17.1478H44.2172V23.3889H41.8028ZM44.2172 14.9839H47.0872C48.1198 14.9839 48.8715 14.7409 49.3422 14.255C49.8281 13.7691 50.0711 13.1161 50.0711 12.2961C50.0711 11.4913 49.8281 10.8459 49.3422 10.36C48.8715 9.85889 48.1198 9.60833 47.0872 9.60833H44.2172V14.9839ZM65.2322 23.6622C63.9415 23.6622 62.8254 23.3281 61.8839 22.66C60.9424 21.9918 60.2211 21.0428 59.72 19.8128C59.2189 18.5828 58.9683 17.1174 58.9683 15.4167C58.9683 13.7159 59.2189 12.2506 59.72 11.0206C60.2211 9.79055 60.9424 8.84148 61.8839 8.17333C62.8254 7.50518 63.9415 7.17111 65.2322 7.17111C66.5381 7.17111 67.6542 7.50518 68.5805 8.17333C69.522 8.84148 70.2433 9.79055 70.7444 11.0206C71.2455 12.2506 71.4961 13.7159 71.4961 15.4167C71.4961 17.1174 71.2455 18.5828 70.7444 19.8128C70.2433 21.0428 69.522 21.9918 68.5805 22.66C67.6542 23.3281 66.5381 23.6622 65.2322 23.6622ZM65.2322 21.3844C66.3711 21.3844 67.2898 20.8757 67.9883 19.8583C68.6868 18.8257 69.0361 17.3452 69.0361 15.4167C69.0361 13.4881 68.6868 12.0152 67.9883 10.9978C67.2898 9.96518 66.3711 9.44889 65.2322 9.44889C64.0781 9.44889 63.1518 9.96518 62.4533 10.9978C61.77 12.0152 61.4283 13.4881 61.4283 15.4167C61.4283 17.3452 61.77 18.8257 62.4533 19.8583C63.1518 20.8757 64.0781 21.3844 65.2322 21.3844ZM82.2383 23.3889V9.60833H77.9561V7.44444H88.935V9.60833H84.6528V23.3889H82.2383ZM101.818 23.6622C100.695 23.6622 99.7076 23.4572 98.8572 23.0472C98.022 22.6372 97.3614 22.0526 96.8755 21.2933C96.4048 20.5341 96.1618 19.6306 96.1466 18.5828H98.6977C98.7129 19.3876 98.9863 20.0785 99.5177 20.6556C100.064 21.2174 100.824 21.4983 101.796 21.4983C102.691 21.4983 103.39 21.2933 103.891 20.8833C104.392 20.4581 104.643 19.9115 104.643 19.2433C104.643 18.6815 104.491 18.2183 104.187 17.8539C103.899 17.4743 103.443 17.1402 102.821 16.8517C102.198 16.548 101.393 16.2367 100.406 15.9178C99.085 15.4926 98.1131 14.908 97.4905 14.1639C96.8679 13.4046 96.5566 12.4783 96.5566 11.385C96.5566 10.1246 97.0122 9.10722 97.9233 8.33277C98.8344 7.55833 100.087 7.17111 101.682 7.17111C103.231 7.17111 104.476 7.57352 105.417 8.37833C106.359 9.16796 106.845 10.2689 106.875 11.6811H104.301C104.301 11.3015 104.195 10.937 103.982 10.5878C103.77 10.2233 103.466 9.92722 103.071 9.69944C102.676 9.45648 102.19 9.335 101.613 9.335C100.9 9.31981 100.3 9.49444 99.8139 9.85889C99.3279 10.2081 99.085 10.6865 99.085 11.2939C99.085 12.038 99.3811 12.6226 99.9733 13.0478C100.566 13.4578 101.53 13.883 102.866 14.3233C103.701 14.5967 104.438 14.9307 105.076 15.3256C105.728 15.7052 106.237 16.1987 106.602 16.8061C106.981 17.3983 107.171 18.1576 107.171 19.0839C107.171 19.9343 106.958 20.7087 106.533 21.4072C106.108 22.0906 105.493 22.6372 104.688 23.0472C103.899 23.4572 102.942 23.6622 101.818 23.6622Z"/>
</mask>
<path d="M28.965 23.6622C27.8413 23.6622 26.8543 23.4572 26.0039 23.0472C25.1687 22.6372 24.5082 22.0526 24.0222 21.2933C23.5515 20.5341 23.3085 19.6306 23.2933 18.5828H25.8445C25.8596 19.3876 26.133 20.0785 26.6645 20.6556C27.2111 21.2174 27.9704 21.4983 28.9422 21.4983C29.8382 21.4983 30.5367 21.2933 31.0378 20.8833C31.5389 20.4581 31.7895 19.9115 31.7895 19.2433C31.7895 18.6815 31.6376 18.2183 31.3339 17.8539C31.0454 17.4743 30.5898 17.1402 29.9672 16.8517C29.3446 16.548 28.5398 16.2367 27.5528 15.9178C26.2317 15.4926 25.2598 14.908 24.6372 14.1639C24.0146 13.4046 23.7033 12.4783 23.7033 11.385C23.7033 10.1246 24.1589 9.10722 25.07 8.33277C25.9811 7.55833 27.2339 7.17111 28.8283 7.17111C30.3772 7.17111 31.6224 7.57352 32.5639 8.37833C33.5054 9.16796 33.9913 10.2689 34.0217 11.6811H31.4478C31.4478 11.3015 31.3415 10.937 31.1289 10.5878C30.9163 10.2233 30.6126 9.92722 30.2178 9.69944C29.823 9.45648 29.337 9.335 28.76 9.335C28.0463 9.31981 27.4465 9.49444 26.9606 9.85889C26.4746 10.2081 26.2317 10.6865 26.2317 11.2939C26.2317 12.038 26.5278 12.6226 27.12 13.0478C27.7122 13.4578 28.6765 13.883 30.0128 14.3233C30.848 14.5967 31.5845 14.9307 32.2222 15.3256C32.8752 15.7052 33.3839 16.1987 33.7483 16.8061C34.128 17.3983 34.3178 18.1576 34.3178 19.0839C34.3178 19.9343 34.1052 20.7087 33.68 21.4072C33.2548 22.0906 32.6398 22.6372 31.835 23.0472C31.0454 23.4572 30.0887 23.6622 28.965 23.6622ZM41.8028 23.3889V7.44444H47.2011C48.4159 7.44444 49.4181 7.65703 50.2078 8.08222C50.9974 8.49222 51.582 9.06166 51.9617 9.79055C52.3413 10.5194 52.5311 11.3546 52.5311 12.2961C52.5311 13.2376 52.3413 14.0728 51.9617 14.8017C51.582 15.5306 50.9974 16.1076 50.2078 16.5328C49.4181 16.9428 48.4159 17.1478 47.2011 17.1478H44.2172V23.3889H41.8028ZM44.2172 14.9839H47.0872C48.1198 14.9839 48.8715 14.7409 49.3422 14.255C49.8281 13.7691 50.0711 13.1161 50.0711 12.2961C50.0711 11.4913 49.8281 10.8459 49.3422 10.36C48.8715 9.85889 48.1198 9.60833 47.0872 9.60833H44.2172V14.9839ZM65.2322 23.6622C63.9415 23.6622 62.8254 23.3281 61.8839 22.66C60.9424 21.9918 60.2211 21.0428 59.72 19.8128C59.2189 18.5828 58.9683 17.1174 58.9683 15.4167C58.9683 13.7159 59.2189 12.2506 59.72 11.0206C60.2211 9.79055 60.9424 8.84148 61.8839 8.17333C62.8254 7.50518 63.9415 7.17111 65.2322 7.17111C66.5381 7.17111 67.6542 7.50518 68.5805 8.17333C69.522 8.84148 70.2433 9.79055 70.7444 11.0206C71.2455 12.2506 71.4961 13.7159 71.4961 15.4167C71.4961 17.1174 71.2455 18.5828 70.7444 19.8128C70.2433 21.0428 69.522 21.9918 68.5805 22.66C67.6542 23.3281 66.5381 23.6622 65.2322 23.6622ZM65.2322 21.3844C66.3711 21.3844 67.2898 20.8757 67.9883 19.8583C68.6868 18.8257 69.0361 17.3452 69.0361 15.4167C69.0361 13.4881 68.6868 12.0152 67.9883 10.9978C67.2898 9.96518 66.3711 9.44889 65.2322 9.44889C64.0781 9.44889 63.1518 9.96518 62.4533 10.9978C61.77 12.0152 61.4283 13.4881 61.4283 15.4167C61.4283 17.3452 61.77 18.8257 62.4533 19.8583C63.1518 20.8757 64.0781 21.3844 65.2322 21.3844ZM82.2383 23.3889V9.60833H77.9561V7.44444H88.935V9.60833H84.6528V23.3889H82.2383ZM101.818 23.6622C100.695 23.6622 99.7076 23.4572 98.8572 23.0472C98.022 22.6372 97.3614 22.0526 96.8755 21.2933C96.4048 20.5341 96.1618 19.6306 96.1466 18.5828H98.6977C98.7129 19.3876 98.9863 20.0785 99.5177 20.6556C100.064 21.2174 100.824 21.4983 101.796 21.4983C102.691 21.4983 103.39 21.2933 103.891 20.8833C104.392 20.4581 104.643 19.9115 104.643 19.2433C104.643 18.6815 104.491 18.2183 104.187 17.8539C103.899 17.4743 103.443 17.1402 102.821 16.8517C102.198 16.548 101.393 16.2367 100.406 15.9178C99.085 15.4926 98.1131 14.908 97.4905 14.1639C96.8679 13.4046 96.5566 12.4783 96.5566 11.385C96.5566 10.1246 97.0122 9.10722 97.9233 8.33277C98.8344 7.55833 100.087 7.17111 101.682 7.17111C103.231 7.17111 104.476 7.57352 105.417 8.37833C106.359 9.16796 106.845 10.2689 106.875 11.6811H104.301C104.301 11.3015 104.195 10.937 103.982 10.5878C103.77 10.2233 103.466 9.92722 103.071 9.69944C102.676 9.45648 102.19 9.335 101.613 9.335C100.9 9.31981 100.3 9.49444 99.8139 9.85889C99.3279 10.2081 99.085 10.6865 99.085 11.2939C99.085 12.038 99.3811 12.6226 99.9733 13.0478C100.566 13.4578 101.53 13.883 102.866 14.3233C103.701 14.5967 104.438 14.9307 105.076 15.3256C105.728 15.7052 106.237 16.1987 106.602 16.8061C106.981 17.3983 107.171 18.1576 107.171 19.0839C107.171 19.9343 106.958 20.7087 106.533 21.4072C106.108 22.0906 105.493 22.6372 104.688 23.0472C103.899 23.4572 102.942 23.6622 101.818 23.6622Z" fill="#212121"/>
<path d="M26.0039 23.0472L25.9035 23.2517L25.905 23.2524L26.0039 23.0472ZM24.0222 21.2933L23.8286 21.4134L23.8304 21.4161L24.0222 21.2933ZM23.2933 18.5828V18.355H23.0622L23.0656 18.5861L23.2933 18.5828ZM25.8445 18.5828L26.0722 18.5785L26.068 18.355H25.8445V18.5828ZM26.6645 20.6556L26.4968 20.8099L26.5012 20.8144L26.6645 20.6556ZM31.0378 20.8833L31.182 21.0596L31.1852 21.057L31.0378 20.8833ZM31.3339 17.8539L31.1524 17.9918L31.1589 17.9997L31.3339 17.8539ZM29.9672 16.8517L29.8673 17.0564L29.8715 17.0583L29.9672 16.8517ZM27.5528 15.9178L27.6228 15.701L27.6226 15.7009L27.5528 15.9178ZM24.6372 14.1639L24.4611 14.3083L24.4625 14.3101L24.6372 14.1639ZM32.5639 8.37833L32.4159 8.55148L32.4175 8.55285L32.5639 8.37833ZM34.0217 11.6811V11.9089H34.2544L34.2494 11.6762L34.0217 11.6811ZM31.4478 11.6811H31.22V11.9089H31.4478V11.6811ZM31.1289 10.5878L30.9321 10.7026L30.9343 10.7062L31.1289 10.5878ZM30.2178 9.69944L30.0984 9.89351L30.104 9.89674L30.2178 9.69944ZM28.76 9.335L28.7552 9.56277H28.76V9.335ZM26.9606 9.85889L27.0935 10.0439L27.0972 10.0411L26.9606 9.85889ZM27.12 13.0478L26.9871 13.2328L26.9904 13.2351L27.12 13.0478ZM30.0128 14.3233L29.9415 14.5397L29.9419 14.5398L30.0128 14.3233ZM32.2222 15.3256L32.1023 15.5193L32.1077 15.5225L32.2222 15.3256ZM33.7483 16.8061L33.5529 16.9233L33.5566 16.929L33.7483 16.8061ZM33.68 21.4072L33.8734 21.5276L33.8746 21.5257L33.68 21.4072ZM31.835 23.0472L31.7316 22.8443L31.73 22.8451L31.835 23.0472ZM28.965 23.4344C27.8691 23.4344 26.917 23.2346 26.1028 22.842L25.905 23.2524C26.7915 23.6798 27.8135 23.89 28.965 23.89V23.4344ZM26.1043 22.8428C25.3052 22.4505 24.6768 21.8936 24.2141 21.1705L23.8304 21.4161C24.3395 22.2116 25.0322 22.824 25.9035 23.2517L26.1043 22.8428ZM24.2158 21.1733C23.7704 20.4548 23.5358 19.5932 23.5211 18.5795L23.0656 18.5861C23.0813 19.6679 23.3326 20.6133 23.8286 21.4134L24.2158 21.1733ZM23.2933 18.8106H25.8445V18.355H23.2933V18.8106ZM25.6167 18.5871C25.6329 19.446 25.9266 20.1907 26.4969 20.8099L26.832 20.5012C26.3393 19.9663 26.0864 19.3292 26.0722 18.5785L25.6167 18.5871ZM26.5012 20.8144C27.1006 21.4304 27.9246 21.7261 28.9422 21.7261V21.2706C28.0162 21.2706 27.3217 21.0044 26.8277 20.4967L26.5012 20.8144ZM28.9422 21.7261C29.8707 21.7261 30.627 21.5137 31.182 21.0596L30.8935 20.707C30.4463 21.073 29.8056 21.2706 28.9422 21.2706V21.7261ZM31.1852 21.057C31.7382 20.5877 32.0172 19.9771 32.0172 19.2433H31.5617C31.5617 19.8459 31.3395 20.3286 30.8904 20.7096L31.1852 21.057ZM32.0172 19.2433C32.0172 18.6385 31.8527 18.1207 31.5089 17.7081L31.1589 17.9997C31.4225 18.316 31.5617 18.7245 31.5617 19.2433H32.0172ZM31.5152 17.7161C31.1965 17.2967 30.7055 16.9427 30.063 16.645L29.8715 17.0583C30.4742 17.3376 30.8942 17.6518 31.1525 17.9917L31.5152 17.7161ZM30.0671 16.6469C29.4314 16.3368 28.6156 16.0218 27.6228 15.701L27.4828 16.1345C28.4641 16.4516 29.2579 16.7591 29.8674 17.0564L30.0671 16.6469ZM27.6226 15.7009C26.3256 15.2836 25.3975 14.7175 24.8119 14.0177L24.4625 14.3101C25.1222 15.0984 26.1377 15.7016 27.483 16.1346L27.6226 15.7009ZM24.8134 14.0195C24.228 13.3056 23.9311 12.432 23.9311 11.385H23.4756C23.4756 12.5246 23.8013 13.5037 24.4611 14.3083L24.8134 14.0195ZM23.9311 11.385C23.9311 10.1873 24.3604 9.23489 25.2175 8.50633L24.9225 8.15922C23.9574 8.97954 23.4756 10.0619 23.4756 11.385H23.9311ZM25.2175 8.50633C26.0754 7.77709 27.2698 7.39889 28.8283 7.39889V6.94333C27.198 6.94333 25.8868 7.33957 24.9225 8.15922L25.2175 8.50633ZM28.8283 7.39889C30.337 7.39889 31.5252 7.79007 32.4159 8.55147L32.7119 8.20519C31.7196 7.35696 30.4175 6.94333 28.8283 6.94333V7.39889ZM32.4175 8.55285C33.3009 9.29378 33.7648 10.3285 33.7939 11.686L34.2494 11.6762C34.2179 10.2092 33.7098 9.04214 32.7103 8.20381L32.4175 8.55285ZM34.0217 11.4533H31.4478V11.9089H34.0217V11.4533ZM31.6756 11.6811C31.6756 11.2565 31.556 10.8514 31.3235 10.4693L30.9343 10.7062C31.1269 11.0226 31.22 11.3465 31.22 11.6811H31.6756ZM31.3256 10.473C31.0915 10.0716 30.7579 9.7481 30.3316 9.50214L30.104 9.89674C30.4673 10.1063 30.7411 10.3751 30.9321 10.7025L31.3256 10.473ZM30.3372 9.50545C29.8986 9.23557 29.3689 9.10722 28.76 9.10722V9.56277C29.3052 9.56277 29.7473 9.67738 30.0984 9.89343L30.3372 9.50545ZM28.7649 9.10727C28.0095 9.0912 27.3574 9.27651 26.8239 9.67666L27.0972 10.0411C27.5355 9.71237 28.0831 9.54842 28.7552 9.56272L28.7649 9.10727ZM26.8276 9.67393C26.2811 10.0667 26.0039 10.6145 26.0039 11.2939H26.4595C26.4595 10.7585 26.6682 10.3496 27.0935 10.0438L26.8276 9.67393ZM26.0039 11.2939C26.0039 12.1095 26.3339 12.7638 26.9872 13.2328L27.2528 12.8627C26.7217 12.4814 26.4595 11.9664 26.4595 11.2939H26.0039ZM26.9904 13.2351C27.6104 13.6643 28.6002 14.0977 29.9415 14.5397L30.0841 14.107C28.7527 13.6683 27.8141 13.2512 27.2497 12.8605L26.9904 13.2351ZM29.9419 14.5398C30.7628 14.8084 31.4823 15.1354 32.1023 15.5192L32.3421 15.1319C31.6866 14.7261 30.9332 14.3849 30.0836 14.1069L29.9419 14.5398ZM32.1077 15.5225C32.7297 15.8841 33.2097 16.351 33.553 16.9233L33.9437 16.6889C33.5581 16.0464 33.0206 15.5263 32.3367 15.1286L32.1077 15.5225ZM33.5566 16.929C33.9063 17.4746 34.09 18.1876 34.09 19.0839H34.5456C34.5456 18.1275 34.3496 17.322 33.9401 16.6832L33.5566 16.929ZM34.09 19.0839C34.09 19.8942 33.888 20.6274 33.4854 21.2888L33.8746 21.5257C34.3224 20.79 34.5456 19.9743 34.5456 19.0839H34.09ZM33.4866 21.2869C33.0859 21.9308 32.5041 22.4507 31.7316 22.8443L31.9384 23.2502C32.7755 22.8237 33.4237 22.2503 33.8734 21.5276L33.4866 21.2869ZM31.73 22.8451C30.9803 23.2344 30.0616 23.4344 28.965 23.4344V23.89C30.1159 23.89 31.1105 23.6801 31.94 23.2494L31.73 22.8451ZM41.8028 23.3889H41.575V23.6167H41.8028V23.3889ZM41.8028 7.44444V7.21666H41.575V7.44444H41.8028ZM50.2078 8.08222L50.0998 8.28279L50.1028 8.28437L50.2078 8.08222ZM51.9617 9.79055L51.7596 9.89577L51.7596 9.89577L51.9617 9.79055ZM51.9617 14.8017L51.7596 14.6964L51.7596 14.6964L51.9617 14.8017ZM50.2078 16.5328L50.3128 16.7349L50.3158 16.7333L50.2078 16.5328ZM44.2172 17.1478V16.92H43.9894V17.1478H44.2172ZM44.2172 23.3889V23.6167H44.445V23.3889H44.2172ZM44.2172 14.9839H43.9894V15.2117H44.2172V14.9839ZM49.3422 14.255L49.1811 14.0939L49.1786 14.0965L49.3422 14.255ZM49.3422 10.36L49.1761 10.516L49.1812 10.5211L49.3422 10.36ZM44.2172 9.60833V9.38055H43.9894V9.60833H44.2172ZM42.0306 23.3889V7.44444H41.575V23.3889H42.0306ZM41.8028 7.67222H47.2011V7.21666H41.8028V7.67222ZM47.2011 7.67222C48.391 7.67222 49.353 7.88067 50.0998 8.28277L50.3158 7.88167C49.4833 7.4334 48.4408 7.21666 47.2011 7.21666V7.67222ZM50.1028 8.28437C50.8545 8.67467 51.4034 9.21187 51.7596 9.89577L52.1637 9.68533C51.7606 8.91146 51.1403 8.30976 50.3127 7.88007L50.1028 8.28437ZM51.7596 9.89577C52.12 10.5877 52.3033 11.3859 52.3033 12.2961H52.7589C52.7589 11.3234 52.5626 10.4512 52.1637 9.68533L51.7596 9.89577ZM52.3033 12.2961C52.3033 13.2063 52.12 14.0045 51.7596 14.6964L52.1637 14.9069C52.5626 14.1411 52.7589 13.2689 52.7589 12.2961H52.3033ZM51.7596 14.6964C51.403 15.3812 50.8531 15.9266 50.0998 16.3322L50.3158 16.7333C51.1417 16.2886 51.761 15.68 52.1637 14.9069L51.7596 14.6964ZM50.1028 16.3306C49.3553 16.7188 48.3921 16.92 47.2011 16.92V17.3756C48.4398 17.3756 49.481 17.1668 50.3127 16.7349L50.1028 16.3306ZM47.2011 16.92H44.2172V17.3756H47.2011V16.92ZM43.9894 17.1478V23.3889H44.445V17.1478H43.9894ZM44.2172 23.1611H41.8028V23.6167H44.2172V23.1611ZM44.2172 15.2117H47.0872V14.7561H44.2172V15.2117ZM47.0872 15.2117C48.1495 15.2117 48.9741 14.9624 49.5058 14.4135L49.1786 14.0965C48.7689 14.5195 48.0901 14.7561 47.0872 14.7561V15.2117ZM49.5033 14.4161C50.04 13.8793 50.2989 13.164 50.2989 12.2961H49.8433C49.8433 13.0682 49.6163 13.6588 49.1812 14.0939L49.5033 14.4161ZM50.2989 12.2961C50.2989 11.442 50.0392 10.7349 49.5033 10.1989L49.1812 10.5211C49.6171 10.957 49.8433 11.5406 49.8433 12.2961H50.2989ZM49.5082 10.204C48.9768 9.63834 48.1512 9.38055 47.0872 9.38055V9.83611C48.0884 9.83611 48.7661 10.0794 49.1762 10.516L49.5082 10.204ZM47.0872 9.38055H44.2172V9.83611H47.0872V9.38055ZM43.9894 9.60833V14.9839H44.445V9.60833H43.9894ZM61.8839 22.66L62.0157 22.4742L62.0157 22.4742L61.8839 22.66ZM59.72 19.8128L59.509 19.8987L59.72 19.8128ZM59.72 11.0206L59.509 10.9346L59.509 10.9346L59.72 11.0206ZM61.8839 8.17333L61.7521 7.98758L61.7521 7.98758L61.8839 8.17333ZM68.5805 8.17333L68.4473 8.35807L68.4487 8.35908L68.5805 8.17333ZM70.7444 11.0206L70.9554 10.9346L70.9554 10.9346L70.7444 11.0206ZM70.7444 19.8128L70.9554 19.8987L70.9554 19.8987L70.7444 19.8128ZM68.5805 22.66L68.4487 22.4742L68.4473 22.4753L68.5805 22.66ZM67.9883 19.8583L68.1761 19.9873L68.177 19.986L67.9883 19.8583ZM67.9883 10.9978L67.7997 11.1254L67.8005 11.1267L67.9883 10.9978ZM62.4533 10.9978L62.2647 10.8701L62.2642 10.8708L62.4533 10.9978ZM62.4533 19.8583L62.2633 19.9841L62.2655 19.9873L62.4533 19.8583ZM65.2322 23.4344C63.9829 23.4344 62.9142 23.1119 62.0157 22.4742L61.7521 22.8458C62.7365 23.5444 63.9001 23.89 65.2322 23.89V23.4344ZM62.0157 22.4742C61.1146 21.8348 60.4182 20.9229 59.9309 19.7268L59.509 19.8987C60.024 21.1627 60.7702 22.1489 61.7521 22.8458L62.0157 22.4742ZM59.9309 19.7268C59.4436 18.5306 59.1961 17.0959 59.1961 15.4167H58.7405C58.7405 17.139 58.9942 18.6349 59.509 19.8987L59.9309 19.7268ZM59.1961 15.4167C59.1961 13.7375 59.4436 12.3027 59.9309 11.1065L59.509 10.9346C58.9942 12.1984 58.7405 13.6944 58.7405 15.4167H59.1961ZM59.9309 11.1065C60.4182 9.91043 61.1146 8.99856 62.0157 8.35908L61.7521 7.98758C60.7702 8.68439 60.024 9.67067 59.509 10.9346L59.9309 11.1065ZM62.0157 8.35908C62.9142 7.72146 63.9829 7.39889 65.2322 7.39889V6.94333C63.9001 6.94333 62.7365 7.2889 61.7521 7.98758L62.0157 8.35908ZM65.2322 7.39889C66.4974 7.39889 67.5652 7.7218 68.4473 8.35806L68.7138 7.9886C67.7433 7.28856 66.5788 6.94333 65.2322 6.94333V7.39889ZM68.4487 8.35908C69.3498 8.99856 70.0462 9.91043 70.5335 11.1065L70.9554 10.9346C70.4404 9.67067 69.6942 8.68439 68.7124 7.98758L68.4487 8.35908ZM70.5335 11.1065C71.0208 12.3027 71.2683 13.7375 71.2683 15.4167H71.7239C71.7239 13.6944 71.4702 12.1984 70.9554 10.9346L70.5335 11.1065ZM71.2683 15.4167C71.2683 17.0959 71.0208 18.5306 70.5335 19.7268L70.9554 19.8987C71.4702 18.6349 71.7239 17.139 71.7239 15.4167H71.2683ZM70.5335 19.7268C70.0462 20.9229 69.3498 21.8348 68.4487 22.4742L68.7124 22.8458C69.6942 22.1489 70.4404 21.1627 70.9554 19.8987L70.5335 19.7268ZM68.4473 22.4753C67.5652 23.1115 66.4974 23.4344 65.2322 23.4344V23.89C66.5788 23.89 67.7433 23.5448 68.7138 22.8447L68.4473 22.4753ZM65.2322 21.6122C66.4533 21.6122 67.4393 21.0604 68.1761 19.9873L67.8005 19.7294C67.1403 20.691 66.2889 21.1567 65.2322 21.1567V21.6122ZM68.177 19.986C68.9114 18.9003 69.2639 17.3676 69.2639 15.4167H68.8083C68.8083 17.3228 68.4622 18.7512 67.7997 19.7307L68.177 19.986ZM69.2639 15.4167C69.2639 13.4661 68.9116 11.9401 68.1761 10.8689L67.8005 11.1267C68.4621 12.0903 68.8083 13.5102 68.8083 15.4167H69.2639ZM68.177 10.8701C67.4408 9.78191 66.4548 9.22111 65.2322 9.22111V9.67666C66.2874 9.67666 67.1388 10.1485 67.7997 11.1254L68.177 10.8701ZM65.2322 9.22111C63.9956 9.22111 63.0015 9.78087 62.2647 10.8701L62.642 11.1254C63.3022 10.1495 64.1607 9.67666 65.2322 9.67666V9.22111ZM62.2642 10.8708C61.545 11.9416 61.2005 13.4668 61.2005 15.4167H61.6561C61.6561 13.5095 61.995 12.0888 62.6424 11.1248L62.2642 10.8708ZM61.2005 15.4167C61.2005 17.3669 61.5452 18.8987 62.2634 19.984L62.6433 19.7326C61.9948 18.7527 61.6561 17.3235 61.6561 15.4167H61.2005ZM62.2655 19.9873C63.0031 21.0615 63.9971 21.6122 65.2322 21.6122V21.1567C64.1591 21.1567 63.3006 20.69 62.6411 19.7294L62.2655 19.9873ZM82.2383 23.3889H82.0105V23.6167H82.2383V23.3889ZM82.2383 9.60833H82.4661V9.38055H82.2383V9.60833ZM77.9561 9.60833H77.7283V9.83611H77.9561V9.60833ZM77.9561 7.44444V7.21666H77.7283V7.44444H77.9561ZM88.935 7.44444H89.1628V7.21666H88.935V7.44444ZM88.935 9.60833V9.83611H89.1628V9.60833H88.935ZM84.6528 9.60833V9.38055H84.425V9.60833H84.6528ZM84.6528 23.3889V23.6167H84.8805V23.3889H84.6528ZM82.4661 23.3889V9.60833H82.0105V23.3889H82.4661ZM82.2383 9.38055H77.9561V9.83611H82.2383V9.38055ZM78.1839 9.60833V7.44444H77.7283V9.60833H78.1839ZM77.9561 7.67222H88.935V7.21666H77.9561V7.67222ZM88.7072 7.44444V9.60833H89.1628V7.44444H88.7072ZM88.935 9.38055H84.6528V9.83611H88.935V9.38055ZM84.425 9.60833V23.3889H84.8805V9.60833H84.425ZM84.6528 23.1611H82.2383V23.6167H84.6528V23.1611ZM98.8572 23.0472L98.7568 23.2517L98.7583 23.2524L98.8572 23.0472ZM96.8755 21.2933L96.6819 21.4134L96.6837 21.4161L96.8755 21.2933ZM96.1466 18.5828V18.355H95.9155L95.9189 18.5861L96.1466 18.5828ZM98.6977 18.5828L98.9255 18.5785L98.9213 18.355H98.6977V18.5828ZM99.5177 20.6556L99.3501 20.8099L99.3545 20.8144L99.5177 20.6556ZM103.891 20.8833L104.035 21.0596L104.038 21.057L103.891 20.8833ZM104.187 17.8539L104.006 17.9918L104.012 17.9997L104.187 17.8539ZM102.821 16.8517L102.721 17.0564L102.725 17.0583L102.821 16.8517ZM100.406 15.9178L100.476 15.701L100.476 15.7009L100.406 15.9178ZM97.4905 14.1639L97.3144 14.3083L97.3158 14.3101L97.4905 14.1639ZM105.417 8.37833L105.269 8.55148L105.271 8.55285L105.417 8.37833ZM106.875 11.6811V11.9089H107.108L107.103 11.6762L106.875 11.6811ZM104.301 11.6811H104.073V11.9089H104.301V11.6811ZM103.982 10.5878L103.785 10.7026L103.788 10.7062L103.982 10.5878ZM103.071 9.69944L102.952 9.89351L102.957 9.89674L103.071 9.69944ZM101.613 9.335L101.608 9.56277H101.613V9.335ZM99.8139 9.85889L99.9468 10.0439L99.9505 10.0411L99.8139 9.85889ZM99.9733 13.0478L99.8404 13.2328L99.8436 13.2351L99.9733 13.0478ZM102.866 14.3233L102.795 14.5397L102.795 14.5398L102.866 14.3233ZM105.076 15.3256L104.956 15.5193L104.961 15.5225L105.076 15.3256ZM106.602 16.8061L106.406 16.9233L106.41 16.929L106.602 16.8061ZM106.533 21.4072L106.727 21.5276L106.728 21.5257L106.533 21.4072ZM104.688 23.0472L104.585 22.8443L104.583 22.8451L104.688 23.0472ZM101.818 23.4344C100.722 23.4344 99.7703 23.2346 98.9561 22.842L98.7583 23.2524C99.6448 23.6798 100.667 23.89 101.818 23.89V23.4344ZM98.9576 22.8428C98.1585 22.4505 97.5301 21.8936 97.0674 21.1705L96.6837 21.4161C97.1928 22.2116 97.8855 22.824 98.7568 23.2517L98.9576 22.8428ZM97.0691 21.1733C96.6236 20.4548 96.3891 19.5932 96.3744 18.5795L95.9189 18.5861C95.9346 19.6679 96.1859 20.6133 96.6819 21.4134L97.0691 21.1733ZM96.1466 18.8106H98.6977V18.355H96.1466V18.8106ZM98.47 18.5871C98.4862 19.446 98.7799 20.1907 99.3502 20.8099L99.6853 20.5012C99.1926 19.9663 98.9396 19.3292 98.9255 18.5785L98.47 18.5871ZM99.3545 20.8144C99.9539 21.4304 100.778 21.7261 101.796 21.7261V21.2706C100.869 21.2706 100.175 21.0044 99.681 20.4967L99.3545 20.8144ZM101.796 21.7261C102.724 21.7261 103.48 21.5137 104.035 21.0596L103.747 20.707C103.3 21.073 102.659 21.2706 101.796 21.2706V21.7261ZM104.038 21.057C104.592 20.5877 104.871 19.9771 104.871 19.2433H104.415C104.415 19.8459 104.193 20.3286 103.744 20.7096L104.038 21.057ZM104.871 19.2433C104.871 18.6385 104.706 18.1207 104.362 17.7081L104.012 17.9997C104.276 18.316 104.415 18.7245 104.415 19.2433H104.871ZM104.369 17.7161C104.05 17.2967 103.559 16.9427 102.916 16.645L102.725 17.0583C103.327 17.3376 103.748 17.6518 104.006 17.9917L104.369 17.7161ZM102.92 16.6469C102.285 16.3368 101.469 16.0218 100.476 15.701L100.336 16.1345C101.317 16.4516 102.111 16.7591 102.721 17.0564L102.92 16.6469ZM100.476 15.7009C99.1789 15.2836 98.2508 14.7175 97.6652 14.0177L97.3158 14.3101C97.9755 15.0984 98.991 15.7016 100.336 16.1346L100.476 15.7009ZM97.6667 14.0195C97.0813 13.3056 96.7844 12.432 96.7844 11.385H96.3289C96.3289 12.5246 96.6546 13.5037 97.3144 14.3083L97.6667 14.0195ZM96.7844 11.385C96.7844 10.1873 97.2137 9.23489 98.0708 8.50633L97.7758 8.15922C96.8107 8.97954 96.3289 10.0619 96.3289 11.385H96.7844ZM98.0708 8.50633C98.9287 7.77709 100.123 7.39889 101.682 7.39889V6.94333C100.051 6.94333 98.7401 7.33957 97.7758 8.15922L98.0708 8.50633ZM101.682 7.39889C103.19 7.39889 104.378 7.79007 105.269 8.55147L105.565 8.20519C104.573 7.35696 103.271 6.94333 101.682 6.94333V7.39889ZM105.271 8.55285C106.154 9.29378 106.618 10.3285 106.647 11.686L107.103 11.6762C107.071 10.2092 106.563 9.04214 105.564 8.20381L105.271 8.55285ZM106.875 11.4533H104.301V11.9089H106.875V11.4533ZM104.529 11.6811C104.529 11.2565 104.409 10.8514 104.177 10.4693L103.788 10.7062C103.98 11.0226 104.073 11.3465 104.073 11.6811H104.529ZM104.179 10.473C103.945 10.0716 103.611 9.7481 103.185 9.50214L102.957 9.89674C103.321 10.1063 103.594 10.3751 103.785 10.7025L104.179 10.473ZM103.19 9.50545C102.752 9.23557 102.222 9.10722 101.613 9.10722V9.56277C102.158 9.56277 102.601 9.67738 102.952 9.89343L103.19 9.50545ZM101.618 9.10727C100.863 9.0912 100.211 9.27651 99.6772 9.67666L99.9505 10.0411C100.389 9.71237 100.936 9.54842 101.608 9.56272L101.618 9.10727ZM99.6809 9.67393C99.1344 10.0667 98.8572 10.6145 98.8572 11.2939H99.3127C99.3127 10.7585 99.5215 10.3496 99.9468 10.0438L99.6809 9.67393ZM98.8572 11.2939C98.8572 12.1095 99.1872 12.7638 99.8405 13.2328L100.106 12.8627C99.575 12.4814 99.3127 11.9664 99.3127 11.2939H98.8572ZM99.8436 13.2351C100.464 13.6643 101.454 14.0977 102.795 14.5397L102.937 14.107C101.606 13.6683 100.667 13.2512 100.103 12.8605L99.8436 13.2351ZM102.795 14.5398C103.616 14.8084 104.336 15.1354 104.956 15.5192L105.195 15.1319C104.54 14.7261 103.786 14.3849 102.937 14.1069L102.795 14.5398ZM104.961 15.5225C105.583 15.8841 106.063 16.351 106.406 16.9233L106.797 16.6889C106.411 16.0464 105.874 15.5263 105.19 15.1286L104.961 15.5225ZM106.41 16.929C106.76 17.4746 106.943 18.1876 106.943 19.0839H107.399C107.399 18.1275 107.203 17.322 106.793 16.6832L106.41 16.929ZM106.943 19.0839C106.943 19.8942 106.741 20.6274 106.339 21.2888L106.728 21.5257C107.176 20.79 107.399 19.9743 107.399 19.0839H106.943ZM106.34 21.2869C105.939 21.9308 105.357 22.4507 104.585 22.8443L104.792 23.2502C105.629 22.8237 106.277 22.2503 106.727 21.5276L106.34 21.2869ZM104.583 22.8451C103.834 23.2344 102.915 23.4344 101.818 23.4344V23.89C102.969 23.89 103.964 23.6801 104.793 23.2494L104.583 22.8451Z" fill="#212121" mask="url(#path-1-outside-1_51_234)"/>
<path d="M7.16667 4.94444L7.16667 14.0556" stroke="#212121" stroke-width="2.84722"/>
<path d="M1.47223 10.6389L7.16667 15.1944L12.8611 10.6389" stroke="#212121" stroke-width="2.84722" stroke-linejoin="bevel"/>
<circle cx="7.16667" cy="20.8889" r="2.27778" fill="#212121"/>
</svg>
